<?xml version="1.0" encoding="utf-8"?>
<!-- Generator: Adobe Illustrator 25.2.3, SVG Export Plug-In . SVG Version: 6.00 Build 0)  -->
<svg version="1.1" id="图层_1" xmlns="http://www.w3.org/2000/svg" xmlns:xlink="http://www.w3.org/1999/xlink" x="0px" y="0px"
	 viewBox="0 0 64 64" style="enable-background:new 0 0 64 64;" xml:space="preserve">
<style type="text/css">
	.st0{fill:#66A8A8;}
</style>
<path class="st0" d="M55.4,8.5c-1.1-0.5-1.6-0.4-3,0.2C51,9.3,41.2,13,41.2,13s-2.4,0.9-3.8,1c-1.4,0.1-3.6-0.8-3.6-0.8l-5.7-2.2
	c0,0-1.9-0.8-2.7-0.8c-0.8-0.1-2.9,0.5-2.9,0.5L9.1,15.3c-0.4,0.2-1.4,0.7-1.4,1.8c0,0,0,35.2,0,36s0.5,2.1,1.2,2.4s2.2,0.3,2.7,0
	c0.6-0.2,10.8-5.2,10.8-5.2c1.2-0.5,2.1-0.8,2.9-0.8c1.1,0.1,2.1,0.7,2.1,0.7l8.1,4.6c0,0,1.2,0.7,2.2,0.8c1,0.1,5.7-2.3,5.7-2.3
	l11.5-5.2c0,0,1.4-0.7,1.4-1.8c0-1.1,0-36.6,0-36.6S56.3,8.8,55.4,8.5z M22.2,43.2l-6.6,3c-0.9,0.4-1.8-0.3-1.8-1.2V22.9
	c0-0.5,0.3-0.9,0.7-1.1l6.6-2.7c0.8-0.4,1.8,0.3,1.8,1.1V42C22.9,42.5,22.6,43,22.2,43.2z M38.2,49.4h-0.8c-0.7,0-1.2-0.6-1.2-1.2
	v-27c0-0.7,0.6-1.2,1.2-1.2h0.8c0.7,0,1.2,0.6,1.2,1.2v27C39.4,48.9,38.9,49.4,38.2,49.4z"/>
</svg>
